<mxfile host="drawio-plugin" agent="Mozilla/5.0 (Windows NT 10.0; Win64; x64) AppleWebKit/537.36 (KHTML, like Gecko) Chrome/122.0.0.0 Safari/537.36" modified="2024-08-15T12:19:22.178Z" version="22.1.22" etag="RT-SEV4Ks-uSuEaRfeXl" type="embed">
  <diagram id="C5RBs43oDa-KdzZeNtuy" name="Page-1">
    <mxGraphModel dx="527" dy="247" grid="1" gridSize="10" guides="1" tooltips="1" connect="1" arrows="1" fold="1" page="1" pageScale="1" pageWidth="827" pageHeight="1169" math="0" shadow="0">
      <root>
        <mxCell id="WIyWlLk6GJQsqaUBKTNV-0" />
        <mxCell id="WIyWlLk6GJQsqaUBKTNV-1" parent="WIyWlLk6GJQsqaUBKTNV-0" />
        <mxCell id="yV_nDEtVTbn-FI2R92OR-37" style="rounded=0;orthogonalLoop=1;jettySize=auto;html=1;" parent="WIyWlLk6GJQsqaUBKTNV-1" source="yV_nDEtVTbn-FI2R92OR-10" target="yV_nDEtVTbn-FI2R92OR-28" edge="1">
          <mxGeometry relative="1" as="geometry" />
        </mxCell>
        <mxCell id="yV_nDEtVTbn-FI2R92OR-38" value="1" style="edgeLabel;html=1;align=center;verticalAlign=middle;resizable=0;points=[];" parent="yV_nDEtVTbn-FI2R92OR-37" vertex="1" connectable="0">
          <mxGeometry x="-0.8273" y="3" relative="1" as="geometry">
            <mxPoint as="offset" />
          </mxGeometry>
        </mxCell>
        <mxCell id="yV_nDEtVTbn-FI2R92OR-39" value="*" style="edgeLabel;html=1;align=center;verticalAlign=middle;resizable=0;points=[];fontSize=18;" parent="yV_nDEtVTbn-FI2R92OR-37" vertex="1" connectable="0">
          <mxGeometry x="0.6581" y="3" relative="1" as="geometry">
            <mxPoint x="9" as="offset" />
          </mxGeometry>
        </mxCell>
        <mxCell id="yV_nDEtVTbn-FI2R92OR-11" value="Ingredient" style="swimlane;fontStyle=1;align=center;verticalAlign=top;childLayout=stackLayout;horizontal=1;startSize=26;horizontalStack=0;resizeParent=1;resizeParentMax=0;resizeLast=0;collapsible=1;marginBottom=0;whiteSpace=wrap;html=1;" parent="WIyWlLk6GJQsqaUBKTNV-1" vertex="1">
          <mxGeometry x="60" y="600" width="160" height="104" as="geometry" />
        </mxCell>
        <mxCell id="yV_nDEtVTbn-FI2R92OR-12" value="+ ingredient: String&lt;br&gt;+ ingredientID: Integer PK" style="text;strokeColor=none;fillColor=none;align=left;verticalAlign=top;spacingLeft=4;spacingRight=4;overflow=hidden;rotatable=0;points=[[0,0.5],[1,0.5]];portConstraint=eastwest;whiteSpace=wrap;html=1;" parent="yV_nDEtVTbn-FI2R92OR-11" vertex="1">
          <mxGeometry y="26" width="160" height="45" as="geometry" />
        </mxCell>
        <mxCell id="yV_nDEtVTbn-FI2R92OR-13" value="" style="line;strokeWidth=1;fillColor=none;align=left;verticalAlign=middle;spacingTop=-1;spacingLeft=3;spacingRight=3;rotatable=0;labelPosition=right;points=[];portConstraint=eastwest;strokeColor=inherit;" parent="yV_nDEtVTbn-FI2R92OR-11" vertex="1">
          <mxGeometry y="71" width="160" height="8" as="geometry" />
        </mxCell>
        <mxCell id="yV_nDEtVTbn-FI2R92OR-14" value="+ method(type): type" style="text;strokeColor=none;fillColor=none;align=left;verticalAlign=top;spacingLeft=4;spacingRight=4;overflow=hidden;rotatable=0;points=[[0,0.5],[1,0.5]];portConstraint=eastwest;whiteSpace=wrap;html=1;" parent="yV_nDEtVTbn-FI2R92OR-11" vertex="1">
          <mxGeometry y="79" width="160" height="25" as="geometry" />
        </mxCell>
        <mxCell id="yV_nDEtVTbn-FI2R92OR-15" value="Step" style="swimlane;fontStyle=1;align=center;verticalAlign=top;childLayout=stackLayout;horizontal=1;startSize=26;horizontalStack=0;resizeParent=1;resizeParentMax=0;resizeLast=0;collapsible=1;marginBottom=0;whiteSpace=wrap;html=1;" parent="WIyWlLk6GJQsqaUBKTNV-1" vertex="1">
          <mxGeometry x="750" y="377" width="160" height="117" as="geometry" />
        </mxCell>
        <mxCell id="yV_nDEtVTbn-FI2R92OR-16" value="+ stepDescription: String&lt;br&gt;+ stepID: Integer PK" style="text;strokeColor=none;fillColor=none;align=left;verticalAlign=top;spacingLeft=4;spacingRight=4;overflow=hidden;rotatable=0;points=[[0,0.5],[1,0.5]];portConstraint=eastwest;whiteSpace=wrap;html=1;" parent="yV_nDEtVTbn-FI2R92OR-15" vertex="1">
          <mxGeometry y="26" width="160" height="43" as="geometry" />
        </mxCell>
        <mxCell id="yV_nDEtVTbn-FI2R92OR-17" value="" style="line;strokeWidth=1;fillColor=none;align=left;verticalAlign=middle;spacingTop=-1;spacingLeft=3;spacingRight=3;rotatable=0;labelPosition=right;points=[];portConstraint=eastwest;strokeColor=inherit;" parent="yV_nDEtVTbn-FI2R92OR-15" vertex="1">
          <mxGeometry y="69" width="160" height="8" as="geometry" />
        </mxCell>
        <mxCell id="yV_nDEtVTbn-FI2R92OR-18" value="+ method(type): type" style="text;strokeColor=none;fillColor=none;align=left;verticalAlign=top;spacingLeft=4;spacingRight=4;overflow=hidden;rotatable=0;points=[[0,0.5],[1,0.5]];portConstraint=eastwest;whiteSpace=wrap;html=1;" parent="yV_nDEtVTbn-FI2R92OR-15" vertex="1">
          <mxGeometry y="77" width="160" height="40" as="geometry" />
        </mxCell>
        <mxCell id="yV_nDEtVTbn-FI2R92OR-19" value="Category" style="swimlane;fontStyle=1;align=center;verticalAlign=top;childLayout=stackLayout;horizontal=1;startSize=20;horizontalStack=0;resizeParent=1;resizeParentMax=0;resizeLast=0;collapsible=1;marginBottom=0;whiteSpace=wrap;html=1;" parent="WIyWlLk6GJQsqaUBKTNV-1" vertex="1">
          <mxGeometry x="590" y="510" width="160" height="106" as="geometry" />
        </mxCell>
        <mxCell id="yV_nDEtVTbn-FI2R92OR-20" value="+ category: String&lt;div&gt;+ categoryID: Integer PK&lt;/div&gt;" style="text;strokeColor=none;fillColor=none;align=left;verticalAlign=top;spacingLeft=4;spacingRight=4;overflow=hidden;rotatable=0;points=[[0,0.5],[1,0.5]];portConstraint=eastwest;whiteSpace=wrap;html=1;" parent="yV_nDEtVTbn-FI2R92OR-19" vertex="1">
          <mxGeometry y="20" width="160" height="40" as="geometry" />
        </mxCell>
        <mxCell id="yV_nDEtVTbn-FI2R92OR-21" value="" style="line;strokeWidth=1;fillColor=none;align=left;verticalAlign=middle;spacingTop=-1;spacingLeft=3;spacingRight=3;rotatable=0;labelPosition=right;points=[];portConstraint=eastwest;strokeColor=inherit;" parent="yV_nDEtVTbn-FI2R92OR-19" vertex="1">
          <mxGeometry y="60" width="160" height="16" as="geometry" />
        </mxCell>
        <mxCell id="yV_nDEtVTbn-FI2R92OR-22" value="+ method(type): type" style="text;strokeColor=none;fillColor=none;align=left;verticalAlign=top;spacingLeft=4;spacingRight=4;overflow=hidden;rotatable=0;points=[[0,0.5],[1,0.5]];portConstraint=eastwest;whiteSpace=wrap;html=1;" parent="yV_nDEtVTbn-FI2R92OR-19" vertex="1">
          <mxGeometry y="76" width="160" height="30" as="geometry" />
        </mxCell>
        <mxCell id="yV_nDEtVTbn-FI2R92OR-27" value="recipeIngredient" style="swimlane;fontStyle=1;align=center;verticalAlign=top;childLayout=stackLayout;horizontal=1;startSize=26;horizontalStack=0;resizeParent=1;resizeParentMax=0;resizeLast=0;collapsible=1;marginBottom=0;whiteSpace=wrap;html=1;" parent="WIyWlLk6GJQsqaUBKTNV-1" vertex="1">
          <mxGeometry x="335" y="350" width="175" height="124" as="geometry" />
        </mxCell>
        <mxCell id="yV_nDEtVTbn-FI2R92OR-28" value="+ recipeID: Integer FK&lt;div&gt;+ ingredientID: Integer FK&lt;br&gt;+ quantity: Integer&lt;br&gt;&lt;/div&gt;&lt;div&gt;+ measurementUnit: String FK&lt;/div&gt;" style="text;strokeColor=none;fillColor=none;align=left;verticalAlign=top;spacingLeft=4;spacingRight=4;overflow=hidden;rotatable=1;points=[[0,0.5],[1,0.5]];portConstraint=eastwest;whiteSpace=wrap;html=1;movable=1;resizable=1;deletable=1;editable=1;locked=0;connectable=1;" parent="yV_nDEtVTbn-FI2R92OR-27" vertex="1">
          <mxGeometry y="26" width="175" height="64" as="geometry" />
        </mxCell>
        <mxCell id="yV_nDEtVTbn-FI2R92OR-29" value="" style="line;strokeWidth=1;fillColor=none;align=left;verticalAlign=middle;spacingTop=-1;spacingLeft=3;spacingRight=3;rotatable=0;labelPosition=right;points=[];portConstraint=eastwest;strokeColor=inherit;" parent="yV_nDEtVTbn-FI2R92OR-27" vertex="1">
          <mxGeometry y="90" width="175" height="8" as="geometry" />
        </mxCell>
        <mxCell id="yV_nDEtVTbn-FI2R92OR-30" value="+ method(type): type" style="text;strokeColor=none;fillColor=none;align=left;verticalAlign=top;spacingLeft=4;spacingRight=4;overflow=hidden;rotatable=0;points=[[0,0.5],[1,0.5]];portConstraint=eastwest;whiteSpace=wrap;html=1;" parent="yV_nDEtVTbn-FI2R92OR-27" vertex="1">
          <mxGeometry y="98" width="175" height="26" as="geometry" />
        </mxCell>
        <mxCell id="yV_nDEtVTbn-FI2R92OR-31" value="recipeCategory" style="swimlane;fontStyle=1;align=center;verticalAlign=top;childLayout=stackLayout;horizontal=1;startSize=26;horizontalStack=0;resizeParent=1;resizeParentMax=0;resizeLast=0;collapsible=1;marginBottom=0;whiteSpace=wrap;html=1;" parent="WIyWlLk6GJQsqaUBKTNV-1" vertex="1">
          <mxGeometry x="560" y="260" width="160" height="100" as="geometry" />
        </mxCell>
        <mxCell id="yV_nDEtVTbn-FI2R92OR-32" value="+ recipeID: Integer FK&lt;br&gt;+ categoryID: Integer FK" style="text;strokeColor=none;fillColor=none;align=left;verticalAlign=top;spacingLeft=4;spacingRight=4;overflow=hidden;rotatable=0;points=[[0,0.5],[1,0.5]];portConstraint=eastwest;whiteSpace=wrap;html=1;" parent="yV_nDEtVTbn-FI2R92OR-31" vertex="1">
          <mxGeometry y="26" width="160" height="40" as="geometry" />
        </mxCell>
        <mxCell id="yV_nDEtVTbn-FI2R92OR-33" value="" style="line;strokeWidth=1;fillColor=none;align=left;verticalAlign=middle;spacingTop=-1;spacingLeft=3;spacingRight=3;rotatable=0;labelPosition=right;points=[];portConstraint=eastwest;strokeColor=inherit;" parent="yV_nDEtVTbn-FI2R92OR-31" vertex="1">
          <mxGeometry y="66" width="160" height="8" as="geometry" />
        </mxCell>
        <mxCell id="yV_nDEtVTbn-FI2R92OR-34" value="+ method(type): type" style="text;strokeColor=none;fillColor=none;align=left;verticalAlign=top;spacingLeft=4;spacingRight=4;overflow=hidden;rotatable=0;points=[[0,0.5],[1,0.5]];portConstraint=eastwest;whiteSpace=wrap;html=1;" parent="yV_nDEtVTbn-FI2R92OR-31" vertex="1">
          <mxGeometry y="74" width="160" height="26" as="geometry" />
        </mxCell>
        <mxCell id="yV_nDEtVTbn-FI2R92OR-45" style="rounded=0;orthogonalLoop=1;jettySize=auto;html=1;strokeColor=default;edgeStyle=orthogonalEdgeStyle;" parent="WIyWlLk6GJQsqaUBKTNV-1" source="yV_nDEtVTbn-FI2R92OR-12" target="yV_nDEtVTbn-FI2R92OR-28" edge="1">
          <mxGeometry relative="1" as="geometry" />
        </mxCell>
        <mxCell id="yV_nDEtVTbn-FI2R92OR-48" value="1" style="edgeLabel;html=1;align=center;verticalAlign=middle;resizable=0;points=[];" parent="yV_nDEtVTbn-FI2R92OR-45" vertex="1" connectable="0">
          <mxGeometry x="-0.8931" y="-1" relative="1" as="geometry">
            <mxPoint as="offset" />
          </mxGeometry>
        </mxCell>
        <mxCell id="yV_nDEtVTbn-FI2R92OR-49" value="*" style="edgeLabel;html=1;align=center;verticalAlign=middle;resizable=0;points=[];fontSize=18;" parent="yV_nDEtVTbn-FI2R92OR-45" vertex="1" connectable="0">
          <mxGeometry x="0.8428" y="3" relative="1" as="geometry">
            <mxPoint as="offset" />
          </mxGeometry>
        </mxCell>
        <mxCell id="yV_nDEtVTbn-FI2R92OR-50" style="rounded=0;orthogonalLoop=1;jettySize=auto;html=1;entryX=0;entryY=0.5;entryDx=0;entryDy=0;exitX=1.004;exitY=0.402;exitDx=0;exitDy=0;exitPerimeter=0;edgeStyle=orthogonalEdgeStyle;" parent="WIyWlLk6GJQsqaUBKTNV-1" source="yV_nDEtVTbn-FI2R92OR-10" target="yV_nDEtVTbn-FI2R92OR-32" edge="1">
          <mxGeometry relative="1" as="geometry">
            <mxPoint x="243.52" y="90" as="sourcePoint" />
            <mxPoint x="400" y="258" as="targetPoint" />
            <Array as="points">
              <mxPoint x="290" y="388" />
              <mxPoint x="290" y="306" />
            </Array>
          </mxGeometry>
        </mxCell>
        <mxCell id="yV_nDEtVTbn-FI2R92OR-51" value="*" style="edgeLabel;html=1;align=center;verticalAlign=middle;resizable=0;points=[];fontSize=18;" parent="yV_nDEtVTbn-FI2R92OR-50" vertex="1" connectable="0">
          <mxGeometry x="0.8776" y="-2" relative="1" as="geometry">
            <mxPoint as="offset" />
          </mxGeometry>
        </mxCell>
        <mxCell id="yV_nDEtVTbn-FI2R92OR-52" style="rounded=0;orthogonalLoop=1;jettySize=auto;html=1;entryX=-0.025;entryY=0.82;entryDx=0;entryDy=0;entryPerimeter=0;edgeStyle=orthogonalEdgeStyle;" parent="WIyWlLk6GJQsqaUBKTNV-1" source="yV_nDEtVTbn-FI2R92OR-19" target="yV_nDEtVTbn-FI2R92OR-32" edge="1">
          <mxGeometry relative="1" as="geometry">
            <Array as="points">
              <mxPoint x="670" y="418" />
              <mxPoint x="520" y="418" />
              <mxPoint x="520" y="319" />
            </Array>
          </mxGeometry>
        </mxCell>
        <mxCell id="yV_nDEtVTbn-FI2R92OR-53" value="1" style="edgeLabel;html=1;align=center;verticalAlign=middle;resizable=0;points=[];" parent="yV_nDEtVTbn-FI2R92OR-52" vertex="1" connectable="0">
          <mxGeometry x="-0.8627" relative="1" as="geometry">
            <mxPoint as="offset" />
          </mxGeometry>
        </mxCell>
        <mxCell id="yV_nDEtVTbn-FI2R92OR-54" value="*" style="edgeLabel;html=1;align=center;verticalAlign=middle;resizable=0;points=[];fontSize=18;" parent="yV_nDEtVTbn-FI2R92OR-52" vertex="1" connectable="0">
          <mxGeometry x="0.7993" y="-2" relative="1" as="geometry">
            <mxPoint as="offset" />
          </mxGeometry>
        </mxCell>
        <mxCell id="yV_nDEtVTbn-FI2R92OR-59" style="edgeStyle=orthogonalEdgeStyle;rounded=0;orthogonalLoop=1;jettySize=auto;html=1;exitX=0;exitY=0.5;exitDx=0;exitDy=0;entryX=0;entryY=0.5;entryDx=0;entryDy=0;fontSize=18;" parent="WIyWlLk6GJQsqaUBKTNV-1" source="yV_nDEtVTbn-FI2R92OR-16" target="yV_nDEtVTbn-FI2R92OR-24" edge="1">
          <mxGeometry relative="1" as="geometry" />
        </mxCell>
        <mxCell id="yV_nDEtVTbn-FI2R92OR-60" value="1" style="edgeLabel;html=1;align=center;verticalAlign=middle;resizable=0;points=[];" parent="yV_nDEtVTbn-FI2R92OR-59" vertex="1" connectable="0">
          <mxGeometry x="-0.9239" y="-2" relative="1" as="geometry">
            <mxPoint as="offset" />
          </mxGeometry>
        </mxCell>
        <mxCell id="yV_nDEtVTbn-FI2R92OR-10" value="&lt;p style=&quot;margin:0px;margin-top:4px;text-align:center;&quot;&gt;&lt;b&gt;Recipe&lt;/b&gt;&lt;/p&gt;&lt;hr size=&quot;1&quot; style=&quot;border-style:solid;&quot;&gt;&lt;p style=&quot;margin:0px;margin-left:4px;&quot;&gt;+ name: String&lt;/p&gt;&lt;p style=&quot;margin:0px;margin-left:4px;&quot;&gt;+ recipeID: Integer PK&lt;/p&gt;&lt;p style=&quot;margin:0px;margin-left:4px;&quot;&gt;+ description: String&lt;/p&gt;&lt;p style=&quot;margin:0px;margin-left:4px;&quot;&gt;+ cookingTimeMin: Integer&amp;nbsp;&lt;/p&gt;&lt;hr size=&quot;1&quot; style=&quot;border-style:solid;&quot;&gt;&lt;p style=&quot;margin:0px;margin-left:4px;&quot;&gt;+ method(): Type&lt;/p&gt;" style="verticalAlign=top;align=left;overflow=fill;html=1;whiteSpace=wrap;" parent="WIyWlLk6GJQsqaUBKTNV-1" vertex="1">
          <mxGeometry x="10" y="340" width="168.88888888888889" height="120" as="geometry" />
        </mxCell>
        <mxCell id="yV_nDEtVTbn-FI2R92OR-55" style="rounded=0;orthogonalLoop=1;jettySize=auto;html=1;edgeStyle=orthogonalEdgeStyle;" parent="WIyWlLk6GJQsqaUBKTNV-1" source="yV_nDEtVTbn-FI2R92OR-10" target="yV_nDEtVTbn-FI2R92OR-24" edge="1">
          <mxGeometry relative="1" as="geometry" />
        </mxCell>
        <mxCell id="yV_nDEtVTbn-FI2R92OR-56" value="*" style="edgeLabel;html=1;align=center;verticalAlign=middle;resizable=0;points=[];fontSize=18;" parent="yV_nDEtVTbn-FI2R92OR-55" vertex="1" connectable="0">
          <mxGeometry x="0.9183" relative="1" as="geometry">
            <mxPoint as="offset" />
          </mxGeometry>
        </mxCell>
        <mxCell id="yV_nDEtVTbn-FI2R92OR-62" value="1" style="edgeLabel;html=1;align=center;verticalAlign=middle;resizable=0;points=[];" parent="yV_nDEtVTbn-FI2R92OR-55" vertex="1" connectable="0">
          <mxGeometry x="-0.9526" y="-1" relative="1" as="geometry">
            <mxPoint as="offset" />
          </mxGeometry>
        </mxCell>
        <mxCell id="yV_nDEtVTbn-FI2R92OR-23" value="RecipeStep" style="swimlane;fontStyle=1;align=center;verticalAlign=top;childLayout=stackLayout;horizontal=1;startSize=26;horizontalStack=0;resizeParent=1;resizeParentMax=0;resizeLast=0;collapsible=1;marginBottom=0;whiteSpace=wrap;html=1;" parent="WIyWlLk6GJQsqaUBKTNV-1" vertex="1">
          <mxGeometry x="750.0011111111112" y="180" width="168.88888888888889" height="115" as="geometry" />
        </mxCell>
        <mxCell id="yV_nDEtVTbn-FI2R92OR-24" value="+ recipeID: Integer FK&lt;div&gt;+ stepID: Integer FK&lt;br&gt;+ stepOrder: Integer&lt;/div&gt;" style="text;strokeColor=none;fillColor=none;align=left;verticalAlign=top;spacingLeft=4;spacingRight=4;overflow=hidden;rotatable=0;points=[[0,0.5],[1,0.5]];portConstraint=eastwest;whiteSpace=wrap;html=1;" parent="yV_nDEtVTbn-FI2R92OR-23" vertex="1">
          <mxGeometry y="26" width="168.88888888888889" height="55" as="geometry" />
        </mxCell>
        <mxCell id="yV_nDEtVTbn-FI2R92OR-25" value="" style="line;strokeWidth=1;fillColor=none;align=left;verticalAlign=middle;spacingTop=-1;spacingLeft=3;spacingRight=3;rotatable=0;labelPosition=right;points=[];portConstraint=eastwest;strokeColor=inherit;" parent="yV_nDEtVTbn-FI2R92OR-23" vertex="1">
          <mxGeometry y="81" width="168.88888888888889" height="8" as="geometry" />
        </mxCell>
        <mxCell id="yV_nDEtVTbn-FI2R92OR-26" value="+ method(type): type" style="text;strokeColor=none;fillColor=none;align=left;verticalAlign=top;spacingLeft=4;spacingRight=4;overflow=hidden;rotatable=0;points=[[0,0.5],[1,0.5]];portConstraint=eastwest;whiteSpace=wrap;html=1;" parent="yV_nDEtVTbn-FI2R92OR-23" vertex="1">
          <mxGeometry y="89" width="168.88888888888889" height="26" as="geometry" />
        </mxCell>
        <mxCell id="0" value="IngredientMeasurement" style="swimlane;fontStyle=1;align=center;verticalAlign=top;childLayout=stackLayout;horizontal=1;startSize=26;horizontalStack=0;resizeParent=1;resizeParentMax=0;resizeLast=0;collapsible=1;marginBottom=0;whiteSpace=wrap;html=1;" vertex="1" parent="WIyWlLk6GJQsqaUBKTNV-1">
          <mxGeometry x="350" y="620" width="250" height="130" as="geometry" />
        </mxCell>
        <mxCell id="1" value="+ ingredientID: Integer FK&lt;br&gt;+ measurementUnit: String&lt;br&gt;+ (ingredientID, measurementUnit) PK" style="text;strokeColor=none;fillColor=none;align=left;verticalAlign=top;spacingLeft=4;spacingRight=4;overflow=hidden;rotatable=0;points=[[0,0.5],[1,0.5]];portConstraint=eastwest;whiteSpace=wrap;html=1;" vertex="1" parent="0">
          <mxGeometry y="26" width="250" height="64" as="geometry" />
        </mxCell>
        <mxCell id="2" value="" style="line;strokeWidth=1;fillColor=none;align=left;verticalAlign=middle;spacingTop=-1;spacingLeft=3;spacingRight=3;rotatable=0;labelPosition=right;points=[];portConstraint=eastwest;strokeColor=inherit;" vertex="1" parent="0">
          <mxGeometry y="90" width="250" height="8" as="geometry" />
        </mxCell>
        <mxCell id="3" value="+ method(type): type" style="text;strokeColor=none;fillColor=none;align=left;verticalAlign=top;spacingLeft=4;spacingRight=4;overflow=hidden;rotatable=0;points=[[0,0.5],[1,0.5]];portConstraint=eastwest;whiteSpace=wrap;html=1;" vertex="1" parent="0">
          <mxGeometry y="98" width="250" height="32" as="geometry" />
        </mxCell>
        <mxCell id="4" style="edgeStyle=orthogonalEdgeStyle;rounded=0;orthogonalLoop=1;jettySize=auto;html=1;" edge="1" parent="WIyWlLk6GJQsqaUBKTNV-1" source="yV_nDEtVTbn-FI2R92OR-12">
          <mxGeometry relative="1" as="geometry">
            <mxPoint x="350" y="660" as="targetPoint" />
          </mxGeometry>
        </mxCell>
        <mxCell id="5" value="1" style="text;html=1;align=center;verticalAlign=middle;resizable=0;points=[];autosize=1;strokeColor=none;fillColor=none;" vertex="1" parent="WIyWlLk6GJQsqaUBKTNV-1">
          <mxGeometry x="305" y="648" width="30" height="30" as="geometry" />
        </mxCell>
        <mxCell id="9" style="edgeStyle=orthogonalEdgeStyle;rounded=0;orthogonalLoop=1;jettySize=auto;html=1;exitX=-0.005;exitY=0.753;exitDx=0;exitDy=0;entryX=0.993;entryY=0.88;entryDx=0;entryDy=0;entryPerimeter=0;exitPerimeter=0;" edge="1" parent="WIyWlLk6GJQsqaUBKTNV-1" source="1" target="yV_nDEtVTbn-FI2R92OR-28">
          <mxGeometry relative="1" as="geometry">
            <Array as="points">
              <mxPoint x="349" y="690" />
              <mxPoint x="330" y="690" />
              <mxPoint x="330" y="560" />
              <mxPoint x="570" y="560" />
              <mxPoint x="570" y="430" />
              <mxPoint x="515" y="430" />
              <mxPoint x="515" y="432" />
            </Array>
          </mxGeometry>
        </mxCell>
        <mxCell id="10" value="1" style="edgeLabel;html=1;align=center;verticalAlign=middle;resizable=0;points=[];" vertex="1" connectable="0" parent="9">
          <mxGeometry x="-0.9465" y="-2" relative="1" as="geometry">
            <mxPoint as="offset" />
          </mxGeometry>
        </mxCell>
        <mxCell id="11" value="*" style="edgeLabel;html=1;align=center;verticalAlign=middle;resizable=0;points=[];" vertex="1" connectable="0" parent="9">
          <mxGeometry x="0.8895" relative="1" as="geometry">
            <mxPoint as="offset" />
          </mxGeometry>
        </mxCell>
      </root>
    </mxGraphModel>
  </diagram>
</mxfile>
